<mxfile host="app.diagrams.net" modified="2022-04-25T12:57:18.623Z" agent="5.0 (X11)" etag="hvEkflZ4uMIiGkY0exff" version="17.4.6" type="github">
  <diagram id="7sCuoE26va40y_8TQayE" name="Page-1">
    <mxGraphModel dx="1350" dy="764" grid="1" gridSize="10" guides="1" tooltips="1" connect="1" arrows="1" fold="1" page="1" pageScale="1" pageWidth="850" pageHeight="1100" math="0" shadow="0">
      <root>
        <mxCell id="0" />
        <mxCell id="1" parent="0" />
        <mxCell id="A2mlpOCiIOqAh3bKwQ5F-1" value="Table" style="swimlane;fontStyle=3;align=center;verticalAlign=top;childLayout=stackLayout;horizontal=1;startSize=26;horizontalStack=0;resizeParent=1;resizeParentMax=0;resizeLast=0;collapsible=1;marginBottom=0;" parent="1" vertex="1">
          <mxGeometry x="328" y="205" width="195" height="188" as="geometry" />
        </mxCell>
        <mxCell id="A2mlpOCiIOqAh3bKwQ5F-2" value="- price : BigDecimal&#xa;- reserved : Boolean&#xa;- cost : BigDecimal&#xa;- reserver : Costumer&#xa;- costumers : List&lt;Costumer&gt; &#xa;- type : TableType&#xa;&#xa;&#xa;&#xa;&#xa;" style="text;strokeColor=none;fillColor=none;align=left;verticalAlign=top;spacingLeft=4;spacingRight=4;overflow=hidden;rotatable=0;points=[[0,0.5],[1,0.5]];portConstraint=eastwest;" parent="A2mlpOCiIOqAh3bKwQ5F-1" vertex="1">
          <mxGeometry y="26" width="195" height="94" as="geometry" />
        </mxCell>
        <mxCell id="A2mlpOCiIOqAh3bKwQ5F-3" value="" style="line;strokeWidth=1;fillColor=none;align=left;verticalAlign=middle;spacingTop=-1;spacingLeft=3;spacingRight=3;rotatable=0;labelPosition=right;points=[];portConstraint=eastwest;" parent="A2mlpOCiIOqAh3bKwQ5F-1" vertex="1">
          <mxGeometry y="120" width="195" height="8" as="geometry" />
        </mxCell>
        <mxCell id="A2mlpOCiIOqAh3bKwQ5F-4" value="+ reserve(Customer) : boolean&#xa;+ increaseCost(Customer) : void&#xa;+ addCostumer(Customer) : void&#xa;" style="text;strokeColor=none;fillColor=none;align=left;verticalAlign=top;spacingLeft=4;spacingRight=4;overflow=hidden;rotatable=0;points=[[0,0.5],[1,0.5]];portConstraint=eastwest;" parent="A2mlpOCiIOqAh3bKwQ5F-1" vertex="1">
          <mxGeometry y="128" width="195" height="60" as="geometry" />
        </mxCell>
        <mxCell id="A2mlpOCiIOqAh3bKwQ5F-5" value="Snooker" style="swimlane;fontStyle=1;align=center;verticalAlign=top;childLayout=stackLayout;horizontal=1;startSize=26;horizontalStack=0;resizeParent=1;resizeParentMax=0;resizeLast=0;collapsible=1;marginBottom=0;" parent="1" vertex="1">
          <mxGeometry x="345.5" y="510" width="160" height="60" as="geometry" />
        </mxCell>
        <mxCell id="A2mlpOCiIOqAh3bKwQ5F-7" value="" style="line;strokeWidth=1;fillColor=none;align=left;verticalAlign=middle;spacingTop=-1;spacingLeft=3;spacingRight=3;rotatable=0;labelPosition=right;points=[];portConstraint=eastwest;" parent="A2mlpOCiIOqAh3bKwQ5F-5" vertex="1">
          <mxGeometry y="26" width="160" height="8" as="geometry" />
        </mxCell>
        <mxCell id="A2mlpOCiIOqAh3bKwQ5F-8" value="+ Reserve() : void" style="text;strokeColor=none;fillColor=none;align=left;verticalAlign=top;spacingLeft=4;spacingRight=4;overflow=hidden;rotatable=0;points=[[0,0.5],[1,0.5]];portConstraint=eastwest;" parent="A2mlpOCiIOqAh3bKwQ5F-5" vertex="1">
          <mxGeometry y="34" width="160" height="26" as="geometry" />
        </mxCell>
        <mxCell id="A2mlpOCiIOqAh3bKwQ5F-9" value="Rex" style="swimlane;fontStyle=1;align=center;verticalAlign=top;childLayout=stackLayout;horizontal=1;startSize=26;horizontalStack=0;resizeParent=1;resizeParentMax=0;resizeLast=0;collapsible=1;marginBottom=0;" parent="1" vertex="1">
          <mxGeometry x="513" y="510" width="160" height="60" as="geometry" />
        </mxCell>
        <mxCell id="A2mlpOCiIOqAh3bKwQ5F-11" value="" style="line;strokeWidth=1;fillColor=none;align=left;verticalAlign=middle;spacingTop=-1;spacingLeft=3;spacingRight=3;rotatable=0;labelPosition=right;points=[];portConstraint=eastwest;" parent="A2mlpOCiIOqAh3bKwQ5F-9" vertex="1">
          <mxGeometry y="26" width="160" height="8" as="geometry" />
        </mxCell>
        <mxCell id="A2mlpOCiIOqAh3bKwQ5F-12" value="+ Reserve() : void" style="text;strokeColor=none;fillColor=none;align=left;verticalAlign=top;spacingLeft=4;spacingRight=4;overflow=hidden;rotatable=0;points=[[0,0.5],[1,0.5]];portConstraint=eastwest;" parent="A2mlpOCiIOqAh3bKwQ5F-9" vertex="1">
          <mxGeometry y="34" width="160" height="26" as="geometry" />
        </mxCell>
        <mxCell id="A2mlpOCiIOqAh3bKwQ5F-13" value="Pool" style="swimlane;fontStyle=1;align=center;verticalAlign=top;childLayout=stackLayout;horizontal=1;startSize=26;horizontalStack=0;resizeParent=1;resizeParentMax=0;resizeLast=0;collapsible=1;marginBottom=0;" parent="1" vertex="1">
          <mxGeometry x="178" y="510" width="160" height="34" as="geometry" />
        </mxCell>
        <mxCell id="A2mlpOCiIOqAh3bKwQ5F-15" value="" style="line;strokeWidth=1;fillColor=none;align=left;verticalAlign=middle;spacingTop=-1;spacingLeft=3;spacingRight=3;rotatable=0;labelPosition=right;points=[];portConstraint=eastwest;" parent="A2mlpOCiIOqAh3bKwQ5F-13" vertex="1">
          <mxGeometry y="26" width="160" height="8" as="geometry" />
        </mxCell>
        <mxCell id="A2mlpOCiIOqAh3bKwQ5F-17" value="" style="endArrow=block;endSize=16;endFill=0;html=1;rounded=0;exitX=0.456;exitY=-0.012;exitDx=0;exitDy=0;exitPerimeter=0;" parent="1" source="A2mlpOCiIOqAh3bKwQ5F-13" target="A2mlpOCiIOqAh3bKwQ5F-1" edge="1">
          <mxGeometry width="160" relative="1" as="geometry">
            <mxPoint x="340" y="390" as="sourcePoint" />
            <mxPoint x="500" y="390" as="targetPoint" />
          </mxGeometry>
        </mxCell>
        <mxCell id="A2mlpOCiIOqAh3bKwQ5F-18" value="" style="endArrow=block;endSize=16;endFill=0;html=1;rounded=0;exitX=0.5;exitY=0;exitDx=0;exitDy=0;" parent="1" source="A2mlpOCiIOqAh3bKwQ5F-5" target="A2mlpOCiIOqAh3bKwQ5F-1" edge="1">
          <mxGeometry width="160" relative="1" as="geometry">
            <mxPoint x="620" y="270" as="sourcePoint" />
            <mxPoint x="450" y="370" as="targetPoint" />
          </mxGeometry>
        </mxCell>
        <mxCell id="A2mlpOCiIOqAh3bKwQ5F-19" value="" style="endArrow=block;endSize=16;endFill=0;html=1;rounded=0;exitX=0.5;exitY=0;exitDx=0;exitDy=0;" parent="1" source="A2mlpOCiIOqAh3bKwQ5F-9" target="A2mlpOCiIOqAh3bKwQ5F-1" edge="1">
          <mxGeometry width="160" relative="1" as="geometry">
            <mxPoint x="340" y="390" as="sourcePoint" />
            <mxPoint x="500" y="390" as="targetPoint" />
          </mxGeometry>
        </mxCell>
        <mxCell id="A2mlpOCiIOqAh3bKwQ5F-20" value="Costumer" style="swimlane;fontStyle=1;align=center;verticalAlign=top;childLayout=stackLayout;horizontal=1;startSize=26;horizontalStack=0;resizeParent=1;resizeParentMax=0;resizeLast=0;collapsible=1;marginBottom=0;" parent="1" vertex="1">
          <mxGeometry x="324" y="25" width="202" height="140" as="geometry" />
        </mxCell>
        <mxCell id="A2mlpOCiIOqAh3bKwQ5F-21" value="+ consumedFood : List&lt;food&gt;&#xa;+ consumedDrink : List&lt;drink&gt;&#xa;" style="text;strokeColor=none;fillColor=none;align=left;verticalAlign=top;spacingLeft=4;spacingRight=4;overflow=hidden;rotatable=0;points=[[0,0.5],[1,0.5]];portConstraint=eastwest;" parent="A2mlpOCiIOqAh3bKwQ5F-20" vertex="1">
          <mxGeometry y="26" width="202" height="44" as="geometry" />
        </mxCell>
        <mxCell id="A2mlpOCiIOqAh3bKwQ5F-22" value="" style="line;strokeWidth=1;fillColor=none;align=left;verticalAlign=middle;spacingTop=-1;spacingLeft=3;spacingRight=3;rotatable=0;labelPosition=right;points=[];portConstraint=eastwest;" parent="A2mlpOCiIOqAh3bKwQ5F-20" vertex="1">
          <mxGeometry y="70" width="202" height="8" as="geometry" />
        </mxCell>
        <mxCell id="A2mlpOCiIOqAh3bKwQ5F-23" value="+ orderFood(Food) : void&#xa;+ orderDrink(Drink) : void&#xa;+ consumptionPrice() : BigDecimal&#xa;&#xa;&#xa;" style="text;strokeColor=none;fillColor=none;align=left;verticalAlign=top;spacingLeft=4;spacingRight=4;overflow=hidden;rotatable=0;points=[[0,0.5],[1,0.5]];portConstraint=eastwest;" parent="A2mlpOCiIOqAh3bKwQ5F-20" vertex="1">
          <mxGeometry y="78" width="202" height="62" as="geometry" />
        </mxCell>
        <mxCell id="A2mlpOCiIOqAh3bKwQ5F-28" value="&lt;&lt;Enum&gt;&gt;&#xa;Food" style="swimlane;fontStyle=1;align=center;verticalAlign=top;childLayout=stackLayout;horizontal=1;startSize=40;horizontalStack=0;resizeParent=1;resizeParentMax=0;resizeLast=0;collapsible=1;marginBottom=0;" parent="1" vertex="1">
          <mxGeometry x="640" y="20" width="160" height="118" as="geometry" />
        </mxCell>
        <mxCell id="A2mlpOCiIOqAh3bKwQ5F-29" value="+ name : String&#xa;+ type: String&#xa;+ cost : BigDecimal&#xa;" style="text;strokeColor=none;fillColor=none;align=left;verticalAlign=top;spacingLeft=4;spacingRight=4;overflow=hidden;rotatable=0;points=[[0,0.5],[1,0.5]];portConstraint=eastwest;" parent="A2mlpOCiIOqAh3bKwQ5F-28" vertex="1">
          <mxGeometry y="40" width="160" height="70" as="geometry" />
        </mxCell>
        <mxCell id="A2mlpOCiIOqAh3bKwQ5F-30" value="" style="line;strokeWidth=1;fillColor=none;align=left;verticalAlign=middle;spacingTop=-1;spacingLeft=3;spacingRight=3;rotatable=0;labelPosition=right;points=[];portConstraint=eastwest;" parent="A2mlpOCiIOqAh3bKwQ5F-28" vertex="1">
          <mxGeometry y="110" width="160" height="8" as="geometry" />
        </mxCell>
        <mxCell id="A2mlpOCiIOqAh3bKwQ5F-36" value="&lt;&lt;Enum&gt;&gt;&#xa;Drink" style="swimlane;fontStyle=1;align=center;verticalAlign=top;childLayout=stackLayout;horizontal=1;startSize=40;horizontalStack=0;resizeParent=1;resizeParentMax=0;resizeLast=0;collapsible=1;marginBottom=0;" parent="1" vertex="1">
          <mxGeometry x="50" y="19" width="160" height="118" as="geometry" />
        </mxCell>
        <mxCell id="A2mlpOCiIOqAh3bKwQ5F-37" value="+ name : String&#xa;+ type : String&#xa;+ cost : BigDecimal&#xa;" style="text;strokeColor=none;fillColor=none;align=left;verticalAlign=top;spacingLeft=4;spacingRight=4;overflow=hidden;rotatable=0;points=[[0,0.5],[1,0.5]];portConstraint=eastwest;" parent="A2mlpOCiIOqAh3bKwQ5F-36" vertex="1">
          <mxGeometry y="40" width="160" height="70" as="geometry" />
        </mxCell>
        <mxCell id="A2mlpOCiIOqAh3bKwQ5F-38" value="" style="line;strokeWidth=1;fillColor=none;align=left;verticalAlign=middle;spacingTop=-1;spacingLeft=3;spacingRight=3;rotatable=0;labelPosition=right;points=[];portConstraint=eastwest;" parent="A2mlpOCiIOqAh3bKwQ5F-36" vertex="1">
          <mxGeometry y="110" width="160" height="8" as="geometry" />
        </mxCell>
        <mxCell id="A2mlpOCiIOqAh3bKwQ5F-40" value="Salon" style="swimlane;fontStyle=1;align=center;verticalAlign=top;childLayout=stackLayout;horizontal=1;startSize=26;horizontalStack=0;resizeParent=1;resizeParentMax=0;resizeLast=0;collapsible=1;marginBottom=0;" parent="1" vertex="1">
          <mxGeometry x="10" y="234" width="250" height="130" as="geometry" />
        </mxCell>
        <mxCell id="A2mlpOCiIOqAh3bKwQ5F-41" value="+ costumers : List&lt;Costumer&gt;&#xa;+ tables : List&lt;Tables&gt;&#xa;" style="text;strokeColor=none;fillColor=none;align=left;verticalAlign=top;spacingLeft=4;spacingRight=4;overflow=hidden;rotatable=0;points=[[0,0.5],[1,0.5]];portConstraint=eastwest;" parent="A2mlpOCiIOqAh3bKwQ5F-40" vertex="1">
          <mxGeometry y="26" width="250" height="44" as="geometry" />
        </mxCell>
        <mxCell id="A2mlpOCiIOqAh3bKwQ5F-42" value="" style="line;strokeWidth=1;fillColor=none;align=left;verticalAlign=middle;spacingTop=-1;spacingLeft=3;spacingRight=3;rotatable=0;labelPosition=right;points=[];portConstraint=eastwest;" parent="A2mlpOCiIOqAh3bKwQ5F-40" vertex="1">
          <mxGeometry y="70" width="250" height="8" as="geometry" />
        </mxCell>
        <mxCell id="A2mlpOCiIOqAh3bKwQ5F-43" value="+ getTablesByType() : List&lt;Table&gt;&#xa;+getTableWithHighestConsuption() : Table&#xa;" style="text;strokeColor=none;fillColor=none;align=left;verticalAlign=top;spacingLeft=4;spacingRight=4;overflow=hidden;rotatable=0;points=[[0,0.5],[1,0.5]];portConstraint=eastwest;" parent="A2mlpOCiIOqAh3bKwQ5F-40" vertex="1">
          <mxGeometry y="78" width="250" height="52" as="geometry" />
        </mxCell>
        <mxCell id="A2mlpOCiIOqAh3bKwQ5F-44" value="" style="endArrow=diamondThin;endFill=0;endSize=24;html=1;rounded=0;" parent="1" source="A2mlpOCiIOqAh3bKwQ5F-20" target="A2mlpOCiIOqAh3bKwQ5F-1" edge="1">
          <mxGeometry width="160" relative="1" as="geometry">
            <mxPoint x="610" y="220" as="sourcePoint" />
            <mxPoint x="500" y="300" as="targetPoint" />
          </mxGeometry>
        </mxCell>
        <mxCell id="A2mlpOCiIOqAh3bKwQ5F-45" value="" style="endArrow=diamondThin;endFill=1;endSize=24;html=1;rounded=0;exitX=0;exitY=0.5;exitDx=0;exitDy=0;" parent="1" source="A2mlpOCiIOqAh3bKwQ5F-29" target="A2mlpOCiIOqAh3bKwQ5F-20" edge="1">
          <mxGeometry width="160" relative="1" as="geometry">
            <mxPoint x="460" y="290" as="sourcePoint" />
            <mxPoint x="620" y="290" as="targetPoint" />
          </mxGeometry>
        </mxCell>
        <mxCell id="A2mlpOCiIOqAh3bKwQ5F-46" value="" style="endArrow=diamondThin;endFill=1;endSize=24;html=1;rounded=0;exitX=1;exitY=0.5;exitDx=0;exitDy=0;" parent="1" source="A2mlpOCiIOqAh3bKwQ5F-37" target="A2mlpOCiIOqAh3bKwQ5F-20" edge="1">
          <mxGeometry width="160" relative="1" as="geometry">
            <mxPoint x="340" y="300" as="sourcePoint" />
            <mxPoint x="500" y="300" as="targetPoint" />
          </mxGeometry>
        </mxCell>
        <mxCell id="A2mlpOCiIOqAh3bKwQ5F-48" value="" style="endArrow=diamondThin;endFill=1;endSize=24;html=1;rounded=0;" parent="1" source="A2mlpOCiIOqAh3bKwQ5F-1" target="A2mlpOCiIOqAh3bKwQ5F-40" edge="1">
          <mxGeometry width="160" relative="1" as="geometry">
            <mxPoint x="320" y="300" as="sourcePoint" />
            <mxPoint x="500" y="300" as="targetPoint" />
          </mxGeometry>
        </mxCell>
        <mxCell id="A2mlpOCiIOqAh3bKwQ5F-52" value="" style="endArrow=diamondThin;endFill=1;endSize=24;html=1;rounded=0;entryX=0.5;entryY=0;entryDx=0;entryDy=0;" parent="1" source="A2mlpOCiIOqAh3bKwQ5F-20" target="A2mlpOCiIOqAh3bKwQ5F-40" edge="1">
          <mxGeometry width="160" relative="1" as="geometry">
            <mxPoint x="-10" y="210" as="sourcePoint" />
            <mxPoint x="150" y="210" as="targetPoint" />
          </mxGeometry>
        </mxCell>
        <mxCell id="G3uc8cEhMoOHJC0Rw0Mx-1" value="&lt;&lt;Enum&gt;&gt;&#xa;TableType" style="swimlane;fontStyle=1;align=center;verticalAlign=top;childLayout=stackLayout;horizontal=1;startSize=40;horizontalStack=0;resizeParent=1;resizeParentMax=0;resizeLast=0;collapsible=1;marginBottom=0;" vertex="1" parent="1">
          <mxGeometry x="620" y="275" width="160" height="48" as="geometry" />
        </mxCell>
        <mxCell id="G3uc8cEhMoOHJC0Rw0Mx-3" value="" style="line;strokeWidth=1;fillColor=none;align=left;verticalAlign=middle;spacingTop=-1;spacingLeft=3;spacingRight=3;rotatable=0;labelPosition=right;points=[];portConstraint=eastwest;" vertex="1" parent="G3uc8cEhMoOHJC0Rw0Mx-1">
          <mxGeometry y="40" width="160" height="8" as="geometry" />
        </mxCell>
        <mxCell id="G3uc8cEhMoOHJC0Rw0Mx-7" value="" style="endArrow=diamondThin;endFill=0;endSize=24;html=1;rounded=0;" edge="1" parent="1" source="G3uc8cEhMoOHJC0Rw0Mx-1" target="A2mlpOCiIOqAh3bKwQ5F-1">
          <mxGeometry width="160" relative="1" as="geometry">
            <mxPoint x="200" y="450" as="sourcePoint" />
            <mxPoint x="360" y="450" as="targetPoint" />
          </mxGeometry>
        </mxCell>
      </root>
    </mxGraphModel>
  </diagram>
</mxfile>
